<svg width="45" height="45" viewBox="0 0 45 45" fill="none" xmlns="http://www.w3.org/2000/svg">
<path d="M24.7247 15.6798L27.5655 13.6157C27.8847 13.3836 28.018 12.9729 27.8962 12.5976C27.7744 12.2224 27.425 11.9686 27.0302 11.9686H23.5182L22.4335 8.62905C22.3116 8.25385 21.9622 8 21.5675 8C21.1727 8 20.8233 8.25385 20.7015 8.62905L19.6167 11.9686H16.1047C15.7099 11.9686 15.3605 12.2224 15.2387 12.5976C15.1169 12.9729 15.2503 13.3836 15.5694 13.6157L18.4102 15.6798L17.3255 19.0198C17.2036 19.395 17.337 19.8062 17.6562 20.0378C17.9763 20.2699 18.4066 20.2699 18.7267 20.0378L21.5675 17.9737L24.4082 20.0378C24.7246 20.2672 25.1632 20.2665 25.4787 20.0378C25.7979 19.8062 25.9313 19.395 25.8094 19.0198L24.7247 15.6798Z" fill="black"/>
<path d="M15.1943 15.5895H13.7352C13.3396 15.5895 12.991 15.3366 12.8692 14.9605L12.4184 13.5726C12.2966 13.1974 11.9472 12.9435 11.5524 12.9435C11.1577 12.9435 10.8082 13.1974 10.6864 13.5726L10.2357 14.9605C10.1138 15.3366 9.76531 15.5895 9.36965 15.5895H7.9106C7.51584 15.5895 7.16641 15.8434 7.0446 16.2186C6.92279 16.5938 7.05616 17.005 7.37535 17.2366L8.55611 18.0937C8.87619 18.3267 9.00867 18.7361 8.88686 19.1122C8.88686 19.1122 8.43761 20.495 8.43608 20.4997C8.17119 21.315 9.14192 22.0247 9.83734 21.5177L11.0172 20.6602C11.3373 20.4272 11.7676 20.4272 12.0877 20.6602C12.0877 20.6602 13.2674 21.5177 13.2676 21.5177C13.9514 22.0148 14.9395 21.3334 14.6688 20.4997L14.218 19.1127C14.0962 18.7361 14.2287 18.3267 14.5488 18.0942L15.7295 17.2366C16.0487 17.005 16.1821 16.5938 16.0603 16.2186C15.9385 15.8434 15.589 15.5895 15.1943 15.5895Z" fill="black"/>
<path d="M28.917 19.1122C28.917 19.1122 28.4679 20.4945 28.4662 20.4997C28.2015 21.3144 29.1747 22.0228 29.8675 21.5177L31.0474 20.6602C31.3674 20.4272 31.7978 20.4272 32.1179 20.6602L33.2977 21.5178C33.9966 22.0273 34.9647 21.3183 34.699 20.4997L34.2482 19.1127C34.1264 18.7361 34.2589 18.3267 34.5789 18.0942L35.7597 17.2366C36.0789 17.005 36.2122 16.5938 36.0904 16.2186C35.9686 15.8434 35.6192 15.5895 35.2244 15.5895H33.7654C33.3697 15.5895 33.0212 15.3366 32.8994 14.9605L32.4486 13.5726C32.3268 13.1974 31.9774 12.9435 31.5826 12.9435C31.1878 12.9435 30.8384 13.1974 30.7166 13.5726L30.2658 14.9605C30.144 15.3366 29.7955 15.5895 29.3998 15.5895H27.9408C27.546 15.5895 27.1966 15.8434 27.0748 16.2186C26.9529 16.5938 27.0863 17.005 27.4055 17.2366L28.5863 18.0937C28.9063 18.3267 29.0388 18.7361 28.917 19.1122Z" fill="black"/>
<path d="M22.9332 22.4326H20.2018C18.6957 22.4326 17.4705 23.6579 17.4705 25.164V34.2686C17.4705 35.7748 18.6957 37 20.2018 37H22.9332C24.4394 37 25.6646 35.7748 25.6646 34.2686V25.164C25.6646 23.6579 24.4394 22.4326 22.9332 22.4326Z" fill="black"/>
<path d="M33.4034 26.0745H30.6721C29.1659 26.0745 27.9407 27.2997 27.9407 28.8059V34.2686C27.9407 35.7748 29.1659 37 30.6721 37H33.4034C34.9096 37 36.1348 35.7748 36.1348 34.2686V28.8059C36.1348 27.2997 34.9096 26.0745 33.4034 26.0745Z" fill="black"/>
<path d="M12.4629 26.0745H9.7315C8.22533 26.0745 7.00012 27.2997 7.00012 28.8059V34.2686C7.00012 35.7748 8.22533 37 9.7315 37H12.4629C13.9691 37 15.1943 35.7748 15.1943 34.2686V28.8059C15.1943 27.2997 13.9691 26.0745 12.4629 26.0745Z" fill="black"/>
</svg>
