<svg width="45" height="45" viewBox="0 0 45 45" fill="none" xmlns="http://www.w3.org/2000/svg">
<path d="M35.26 11H13.22C12.2607 11 11.48 11.7807 11.48 12.74V15.06V15.64V31.3C11.48 31.619 11.219 31.88 10.9 31.88C10.581 31.88 10.32 31.619 10.32 31.3V15.64H9.74C8.78068 15.64 8 16.4207 8 17.38V31.3C8 33.5388 9.82122 35.36 12.06 35.36H35.26C36.2193 35.36 37 34.5793 37 33.62V12.74C37 11.7807 36.2193 11 35.26 11ZM15.54 14.48H25.98C26.3001 14.48 26.56 14.7398 26.56 15.06C26.56 15.3801 26.3001 15.64 25.98 15.64H15.54C15.2199 15.64 14.96 15.3801 14.96 15.06C14.96 14.7399 15.2199 14.48 15.54 14.48ZM14.96 19.7C14.96 19.3799 15.2199 19.12 15.54 19.12H21.34C21.6601 19.12 21.92 19.3799 21.92 19.7V26.66C21.92 26.9801 21.6601 27.24 21.34 27.24H15.54C15.2199 27.24 14.96 26.9801 14.96 26.66V19.7ZM32.94 29.56H15.54C15.2199 29.56 14.96 29.3001 14.96 28.98C14.96 28.6599 15.2199 28.4 15.54 28.4H32.94C33.2601 28.4 33.52 28.6599 33.52 28.98C33.52 29.3001 33.2601 29.56 32.94 29.56ZM32.94 27.24H24.82C24.4998 27.24 24.24 26.9801 24.24 26.66C24.24 26.3399 24.4999 26.08 24.82 26.08H32.94C33.2601 26.08 33.52 26.3399 33.52 26.66C33.52 26.9801 33.2601 27.24 32.94 27.24ZM32.94 24.92H24.82C24.4998 24.92 24.24 24.6601 24.24 24.34C24.24 24.0199 24.4999 23.76 24.82 23.76H32.94C33.2601 23.76 33.52 24.0199 33.52 24.34C33.52 24.6601 33.2601 24.92 32.94 24.92ZM32.94 22.6H24.82C24.4998 22.6 24.24 22.3401 24.24 22.02C24.24 21.6998 24.4999 21.44 24.82 21.44H32.94C33.2601 21.44 33.52 21.6999 33.52 22.02C33.52 22.3402 33.2601 22.6 32.94 22.6ZM32.94 20.28H24.82C24.4998 20.28 24.24 20.0201 24.24 19.7C24.24 19.3799 24.4999 19.12 24.82 19.12H32.94C33.2601 19.12 33.52 19.3799 33.52 19.7C33.52 20.0201 33.2601 20.28 32.94 20.28ZM32.94 17.96H15.54C15.2199 17.96 14.96 17.7002 14.96 17.38C14.96 17.0599 15.2199 16.8 15.54 16.8H32.94C33.2601 16.8 33.52 17.0599 33.52 17.38C33.52 17.7002 33.2601 17.96 32.94 17.96ZM32.94 15.64H29.46C29.1399 15.64 28.88 15.3801 28.88 15.06C28.88 14.7398 29.1399 14.48 29.46 14.48H32.94C33.2601 14.48 33.52 14.7398 33.52 15.06C33.52 15.3802 33.2601 15.64 32.94 15.64Z" fill="black"/>
<path d="M20.76 20.28H16.12V26.08H20.76V20.28Z" fill="black"/>
</svg>
