<svg width="29" height="29" viewBox="0 0 29 29" fill="none" xmlns="http://www.w3.org/2000/svg">
<path fill-rule="evenodd" clip-rule="evenodd" d="M6.38542 5C6.02699 5 5.68321 5.1423 5.42987 5.39583C5.4184 5.40711 5.40711 5.4184 5.39583 5.42987C5.1423 5.68321 5 6.02699 5 6.38542C5 6.54019 5.01346 6.69456 5.04038 6.84695C5.23552 7.95212 6.19344 13.3814 6.19344 13.3814C6.22312 13.5488 6.35632 13.6787 6.52455 13.704L11.8317 14.5L6.52455 15.296C6.35632 15.3213 6.22312 15.4512 6.19344 15.6186C6.19344 15.6186 5.23552 21.0479 5.04038 22.153C5.01346 22.3054 5 22.4598 5 22.6146C5 22.973 5.1423 23.3168 5.39583 23.5701C5.40711 23.5816 5.4184 23.5929 5.42987 23.6042C5.68321 23.8577 6.02699 24 6.38542 24C6.57581 24 6.76383 23.9567 6.93483 23.8729C8.50847 23.1046 20.064 17.461 23.0666 15.9947C23.6378 15.7158 24 15.1355 24 14.5C24 13.8645 23.6378 13.2842 23.0666 13.0053C20.064 11.539 8.50847 5.89538 6.93483 5.12707C6.76383 5.04335 6.57581 5 6.38542 5Z" fill="black"/>
</svg>
