<svg width="45" height="45" viewBox="0 0 45 45" fill="none" xmlns="http://www.w3.org/2000/svg">
<path d="M35.84 23.8845H9.28889C8.58 23.8845 8 24.4645 8 25.2378C8 26.0111 8.58 26.5911 9.28889 26.5911H12.06V36.6445C12.06 37.0311 12.3178 37.2889 12.7044 37.2889C13.0911 37.2889 13.3489 36.9667 13.3489 36.6445V26.5911H31.6511V36.6445C31.6511 37.0311 31.9089 37.2889 32.2956 37.2889C32.6822 37.2889 32.94 36.9667 32.94 36.6445V26.5911H35.7111C36.42 26.5911 37 26.0111 37 25.2378C37 24.4645 36.5489 23.8845 35.84 23.8845Z" fill="black"/>
<path d="M15.2822 19.3089C16.5067 19.8889 17.6022 20.1467 18.6978 20.1467C20.5667 20.1467 22.3067 19.3089 24.1111 17.9555C25.6578 19.6311 26.56 22.2089 26.56 22.2089H32.0378C32.0378 19.18 29.7178 15.9578 28.3 14.3467C31.8444 11.1244 34.1644 12.9933 34.4222 13.1867C35.0022 13.7022 35.9044 13.6378 36.42 13.0578C36.9355 12.4778 36.8711 11.5111 36.2911 10.9955C34.8089 9.64222 30.8133 8.15999 26.3666 12.22C21.6622 16.5378 19.6644 18.2133 16.4422 16.6667C15.7333 16.3444 14.8955 16.6667 14.5733 17.3755C14.2511 18.0844 14.5733 18.9867 15.2822 19.3089Z" fill="black"/>
<path d="M22.0489 11.64C23.2946 11.64 24.3044 10.6013 24.3044 9.32C24.3044 8.0387 23.2946 7 22.0489 7C20.8032 7 19.7933 8.0387 19.7933 9.32C19.7933 10.6013 20.8032 11.64 22.0489 11.64Z" fill="black"/>
<path d="M12.5756 16.7956C13.7356 16.1511 13.9934 14.4111 13.22 12.8644C12.3823 11.3178 10.8356 10.5444 9.6756 11.1889C8.5156 11.8333 8.25783 13.5733 9.03116 15.12C9.86894 16.6667 11.4156 17.44 12.5756 16.7956Z" fill="black"/>
</svg>
