<svg width="45" height="45" viewBox="0 0 45 45" fill="none" xmlns="http://www.w3.org/2000/svg">
<path fill-rule="evenodd" clip-rule="evenodd" d="M16.075 8.5125C16.075 7.67718 16.7522 7 17.5875 7H26.6625C27.4979 7 28.175 7.67718 28.175 8.5125V14.5625C28.175 15.3978 27.4979 16.075 26.6625 16.075H23.6375V20.6125H31.2C32.0354 20.6125 32.7125 21.2896 32.7125 22.125V28.175H35.7375C36.5729 28.175 37.25 28.8521 37.25 29.6875V35.7375C37.25 36.5729 36.5729 37.25 35.7375 37.25H26.6625C25.8271 37.25 25.15 36.5729 25.15 35.7375V29.6875C25.15 28.8521 25.8271 28.175 26.6625 28.175H29.6875V23.6375H14.5625V28.175H17.5875C18.4228 28.175 19.1 28.8521 19.1 29.6875V35.7375C19.1 36.5729 18.4228 37.25 17.5875 37.25H8.5125C7.67718 37.25 7 36.5729 7 35.7375V29.6875C7 28.8521 7.67718 28.175 8.5125 28.175H11.5375V22.125C11.5375 21.2896 12.2147 20.6125 13.05 20.6125H20.6125V16.075H17.5875C16.7522 16.075 16.075 15.3978 16.075 14.5625V8.5125ZM25.15 13.05V10.025H19.1V13.05H25.15ZM10.025 31.2V34.225H16.075V31.2H10.025ZM28.175 31.2V34.225H34.225V31.2H28.175Z" fill="black"/>
</svg>
