<svg width="45" height="45" viewBox="0 0 45 45" fill="none" xmlns="http://www.w3.org/2000/svg">
<path d="M35.6442 26.3093C34.5795 28.0128 33.0889 29.3969 31.2789 30.3019L25.6893 26.5754C25.9555 26.3093 26.2217 26.0431 26.4346 25.7769L27.0202 25.0849L27.2864 24.6058V24.5525C27.3928 24.3928 27.4993 24.1799 27.6058 24.0202C28.4575 22.2102 28.9366 20.2938 28.8834 18.2709C28.8834 15.0768 27.8187 11.9359 25.7958 9.43392C30.8531 7.99659 36.1233 10.9777 37.5074 16.035C37.6671 16.5674 37.7736 17.1529 37.8268 17.6853C38.1462 20.7196 37.3477 23.8073 35.6442 26.3093ZM19.9932 24.0202H26.3814C27.3396 22.2634 27.8719 20.2938 27.7655 18.2709C27.8187 15.13 26.6475 12.1489 24.6246 9.80657C22.8147 7.67718 20.2062 6.50602 17.3847 6.45279C11.6886 6.45279 7.00399 11.7762 7.00399 18.2709C6.95076 20.2938 7.42987 22.2634 8.44133 24.0202H19.9932ZM21.3773 27.9063C22.2823 27.5869 23.1341 27.2143 23.9326 26.6819C24.252 26.469 24.5182 26.256 24.8376 25.9899C25.157 25.7237 25.4231 25.4575 25.6893 25.1381H9.18661C10.3045 26.469 11.7951 27.4272 13.4454 27.9595C14.2439 28.2257 14.8295 28.971 14.8827 29.8228L14.8295 34.0815V35.9447V37.3821C14.8295 37.5418 14.8827 37.6482 14.9892 37.7547C15.0956 37.8612 15.2021 37.9144 15.3618 37.9144H19.6206C19.7803 37.9144 19.8868 37.8612 19.9932 37.7547C20.0997 37.6482 20.1529 37.5418 20.1529 37.3821V35.7318L20.0465 29.876C19.9932 28.971 20.5788 28.1725 21.3773 27.9063ZM21.6967 28.9178C21.3241 29.0775 21.0047 29.4501 21.0047 29.876L21.0579 34.0815L22.7082 31.5795C23.2405 30.8874 24.0923 30.568 24.944 30.781C26.5943 31.2601 28.351 31.2601 30.0546 30.8342L24.8376 27.374C23.9326 28.0128 22.8679 28.5451 21.6967 28.9178Z" fill="black"/>
</svg>
