<svg width="45" height="45" viewBox="0 0 45 45" fill="none" xmlns="http://www.w3.org/2000/svg">
<path d="M28.7221 7C27.2924 7 26.1293 8.22071 26.1293 9.65045C26.1293 11.0802 27.2923 12.2433 28.7221 12.2433C30.1519 12.2433 31.3149 11.0802 31.3149 9.65045C31.3149 8.22071 30.1519 7 28.7221 7Z" fill="black"/>
<path d="M16.6223 22.6146H7.86428C7.38656 22.6146 7 23.0012 7 23.4789C7 23.9566 7.38656 24.3432 7.86428 24.3432H16.6223C17.1 24.3432 17.4866 23.9566 17.4866 23.4789C17.4866 23.0012 17.1 22.6146 16.6223 22.6146Z" fill="black"/>
<path d="M11.4366 19.1575H7.86428C7.38656 19.1575 7 19.5441 7 20.0218C7 20.4995 7.38656 20.8861 7.86428 20.8861H11.4366C11.9143 20.8861 12.3009 20.4995 12.3009 20.0218C12.3009 19.5441 11.9143 19.1575 11.4366 19.1575Z" fill="black"/>
<path d="M13.1652 26.0717H7.86428C7.38656 26.0717 7 26.4583 7 26.936C7 27.4137 7.38656 27.8003 7.86428 27.8003H13.1652C13.6429 27.8003 14.0295 27.4137 14.0295 26.936C14.0295 26.4583 13.6429 26.0717 13.1652 26.0717Z" fill="black"/>
<path d="M36.3106 16.6511C35.9135 15.7846 34.7696 15.4477 33.9943 15.8905L31.6608 17.0487L29.3791 14.767C28.78 14.1677 28.4265 13.8539 27.5122 14.0065C26.9417 14.1275 26.4751 14.525 26.2504 15.0609C25.1469 18.0844 25.8383 16.184 22.7933 24.5679C22.6204 25.0001 22.6376 25.5013 22.8279 25.9334C23.0353 26.3656 23.3983 26.694 23.8477 26.8496L27.8579 28.1806V34.7721C27.8579 35.7228 28.6358 36.5007 29.5865 36.5007C30.5372 36.5007 31.3151 35.7228 31.3151 34.7721V26.936C31.3151 26.1927 30.8483 25.5359 30.1396 25.2939L26.6825 24.1531L28.4975 18.7773L30.0877 20.3848C30.5906 20.8877 31.382 21.0514 32.0929 20.696L35.55 18.9674C36.397 18.5526 36.7427 17.5154 36.3106 16.6511Z" fill="black"/>
<path d="M23.3035 28.4907C22.6766 28.2731 22.1518 27.8931 21.7462 27.404L20.9826 29.5288H17.4865C16.5336 29.5288 15.7579 30.3045 15.7579 31.2574C15.7579 32.2103 16.5336 32.986 17.4865 32.986H22.3261C23.0368 32.986 23.6664 32.5589 23.9306 31.8997L24.8977 29.0193L23.3035 28.4907Z" fill="black"/>
<path d="M20.9437 13.9719C20.6843 13.9719 20.4078 14.0409 20.1658 14.162L16.7087 15.8906C15.8729 16.2737 15.5096 17.3297 15.9482 18.2069C16.3452 19.0734 17.4891 19.4102 18.2644 18.9674L21.3585 17.429H23.5499L24.6261 14.4681C24.7017 14.2877 24.8069 14.1334 24.9042 13.9719H20.9437Z" fill="black"/>
</svg>
