<svg width="45" height="45" viewBox="0 0 45 45" fill="none" xmlns="http://www.w3.org/2000/svg">
<path d="M21.7473 14.0521C22.756 13.634 23.2347 12.4774 22.8167 11.4688C22.3986 10.4601 21.242 9.98139 20.2333 10.3995C19.2247 10.8176 18.7459 11.9742 19.164 12.9828C19.5821 13.9915 20.7387 14.4702 21.7473 14.0521Z" fill="black"/>
<path d="M27.3204 18.7616L25.5651 18.8236C25.2585 17.9652 25.0166 17.2785 24.8441 16.7766C24.4016 15.489 23.6598 14.8362 22.639 14.8362H19.3347C18.314 14.8362 17.5721 15.489 17.1296 16.7766C16.9374 17.3357 16.8005 17.7285 16.6129 18.2553L15.3795 17.6273L15.2937 17.7956V19.724L16.7123 20.4462C17.2216 20.7054 17.847 20.4613 18.0423 19.9195C18.2665 19.2971 18.5567 18.4808 18.5567 18.4808L17.2032 25.574C17.1396 25.9021 17.3924 26.2052 17.7233 26.2052H18.451V33.0982C18.451 33.7302 18.9634 34.2426 19.5955 34.2426C20.2275 34.2426 20.7399 33.7302 20.7399 33.0982V26.2051H21.2339V33.0981C21.2339 33.7302 21.7463 34.2425 22.3783 34.2425C23.0104 34.2425 23.5228 33.7302 23.5228 33.0981V26.2051H24.2505C24.5825 26.2051 24.8342 25.9022 24.7706 25.574L23.4161 18.4723C23.4161 18.4723 23.7802 19.4983 24.0047 20.1235C24.141 20.5033 24.5009 20.755 24.902 20.755C24.9133 20.755 24.9246 20.7548 24.936 20.7544L26.9953 20.6816L27.3204 18.7616Z" fill="black"/>
<path d="M14.6524 23.4372C14.651 23.4345 14.6493 23.4322 14.6478 23.4295L14.5869 17.7773L16.6025 14.1805C16.685 14.0412 16.7292 13.8826 16.7307 13.7207L16.7712 9.37877C16.7759 8.8711 16.3682 8.45563 15.8605 8.45093C15.8575 8.45093 15.8547 8.45093 15.8518 8.45093C15.3481 8.45093 14.9374 8.85694 14.9327 9.36165L14.8997 12.9014C14.9694 13.1386 15.0074 13.3865 15.0102 13.6402C15.018 14.3637 14.7436 15.0471 14.2375 15.5642C13.9598 15.8479 13.6305 16.0624 13.2705 16.2001L13.139 16.4222H10.8197L8.86821 14.0082L9.16191 10.7638C9.20769 10.2582 8.83489 9.81118 8.32921 9.76539C7.82432 9.71978 7.37644 10.0925 7.33077 10.5981L7.00375 14.2108C6.98233 14.4472 7.05322 14.6827 7.20146 14.8681L9.4139 17.6332C9.38812 17.8238 9.40296 17.4861 9.47232 24.4099L8.26161 27.6131C8.22755 27.7031 8.20432 27.7969 8.19236 27.8924L7.56836 32.8726C7.48467 33.5402 7.95817 34.1493 8.62585 34.233C8.67725 34.2395 8.72836 34.2426 8.77885 34.2426C9.38421 34.2426 9.90904 33.7918 9.98628 33.1756L10.5923 28.3392L11.9151 24.8391L12.635 24.8314L14.5657 28.4261L14.173 32.918C14.1144 33.5884 14.6103 34.1793 15.2807 34.2379C15.3168 34.2411 15.3527 34.2426 15.3882 34.2426C16.0131 34.2426 16.5452 33.7645 16.6006 33.1302L17.025 28.2761C17.0456 28.0397 16.9968 27.8025 16.8845 27.5934L14.6524 23.4372Z" fill="black"/>
<path d="M12.3008 15.6983C12.3082 15.6983 12.3157 15.6983 12.3231 15.6982C13.4437 15.6862 14.3423 14.768 14.3302 13.6474C14.3182 12.5342 13.4122 11.6401 12.3017 11.6402C12.2944 11.6402 12.2868 11.6403 12.2794 11.6403C11.1589 11.6524 10.2603 12.5706 10.2723 13.6911C10.2843 14.8043 11.1903 15.6983 12.3008 15.6983Z" fill="black"/>
<path d="M35.8622 32.4613L33.1689 27.2867L32.2758 24.1923C33.286 17.5087 33.2652 17.5155 33.2652 17.5155L35.0913 13.971C35.1697 13.8186 35.204 13.6475 35.1904 13.4768L34.8206 8.84615C34.7801 8.34013 34.3386 7.96251 33.831 8.00297C33.3249 8.04337 32.9474 8.48644 32.9878 8.99252L33.3368 13.3619L31.7983 16.3484L29.7734 16.039L29.4737 15.618C29.0715 15.4302 28.7203 15.1438 28.4501 14.7762C28.1633 14.386 27.9913 13.9362 27.9427 13.467L27.6763 13.0927L28.0158 9.45553C28.063 8.95002 27.6914 8.50197 27.1859 8.45476C26.68 8.40767 26.2324 8.77912 26.1852 9.28463L25.8138 13.2619C25.7934 13.4814 25.8524 13.7009 25.9803 13.8804L28.1929 16.9892L27.3722 22.3569C27.3722 22.3569 27.3931 22.2769 25.647 27.0728C25.5986 27.2061 25.5739 27.3468 25.5739 27.4887V33.0241C25.5739 33.697 26.1194 34.2425 26.7923 34.2425C27.4652 34.2425 28.0107 33.697 28.0107 33.0241V27.7031L29.3236 24.0874L29.7391 24.1914L30.8614 28.0794C30.8838 28.1571 30.9139 28.2323 30.9512 28.304L33.7006 33.5865C34.0108 34.1824 34.746 34.4159 35.3439 34.1047C35.9408 33.794 36.1728 33.0582 35.8622 32.4613Z" fill="black"/>
<path d="M30.3107 15.1682C30.4133 15.1838 30.5154 15.1915 30.616 15.1915C31.5897 15.1915 32.444 14.4811 32.5956 13.4889C32.7628 12.3943 32.0111 11.3712 30.9163 11.204C30.8138 11.1884 30.7117 11.1807 30.611 11.1807C29.6373 11.1807 28.783 11.8911 28.6314 12.8833C28.4642 13.978 29.216 15.001 30.3107 15.1682Z" fill="black"/>
</svg>
