<svg width="45" height="45" viewBox="0 0 45 45" fill="none" xmlns="http://www.w3.org/2000/svg">
<path d="M32.6708 9H9.51674C8.84933 9.00024 8.20933 9.26547 7.7374 9.7374C7.26547 10.2093 7.00024 10.8493 7 11.5167V34.6708C7.00024 35.3382 7.26547 35.9782 7.7374 36.4501C8.20933 36.922 8.84933 37.1873 9.51674 37.1875H32.6708C33.3382 37.1873 33.9782 36.922 34.4501 36.4501C34.922 35.9782 35.1873 35.3382 35.1875 34.6708V11.5167C35.1873 10.8493 34.922 10.2093 34.4501 9.7374C33.9782 9.26547 33.3382 9.00024 32.6708 9ZM25.6038 30.8252L25.2615 31.9678C25.2459 32.0192 25.2188 32.0664 25.1821 32.1056C25.1455 32.1449 25.1003 32.1752 25.0501 32.1943C23.389 32.8637 22.2313 33.1607 21.3001 33.1607C20.3495 33.1408 19.4296 32.8201 18.6726 32.2446C17.077 31.1775 18.0837 27.7648 18.9696 24.7548C19.1055 24.2917 19.2364 23.8488 19.3471 23.4411C19.4579 23.0484 19.5334 22.525 19.2616 22.2733C18.7834 21.8354 17.4495 22.1928 17.0217 22.3488C16.9612 22.3709 16.896 22.377 16.8325 22.3664C16.769 22.3558 16.7093 22.3289 16.6593 22.2884C16.6112 22.2457 16.5752 22.1912 16.5549 22.1302C16.5346 22.0693 16.5307 22.004 16.5435 21.9411L16.775 20.8236C16.7859 20.7693 16.8093 20.7183 16.8434 20.6746C16.8775 20.6309 16.9213 20.5958 16.9713 20.572C18.0406 20.1158 19.1665 19.8059 20.3186 19.6508C21.4511 19.4847 22.8303 19.6609 23.6105 20.5871C24.2598 21.3572 24.4209 22.5149 24.0937 24.03C24.0484 24.2364 23.9427 24.5736 23.7917 25.0367C23.3387 26.431 22.4981 29.0232 22.6743 30.1457C22.6823 30.2347 22.7116 30.3206 22.7598 30.3959C22.808 30.4712 22.8736 30.5339 22.9511 30.5785C23.5098 30.9007 24.738 30.5383 25.1306 30.3873C25.1929 30.3622 25.2611 30.3554 25.3272 30.3679C25.3932 30.3804 25.4542 30.4116 25.5031 30.4577C25.5528 30.5033 25.5886 30.5619 25.6064 30.6269C25.6242 30.6919 25.6233 30.7607 25.6038 30.8252ZM23.0518 18.2314C22.5371 18.2314 22.034 18.0788 21.606 17.7928C21.1781 17.5069 20.8445 17.1005 20.6476 16.625C20.4506 16.1494 20.3991 15.6262 20.4995 15.1214C20.5999 14.6166 20.8477 14.1529 21.2117 13.789C21.5756 13.425 22.0393 13.1772 22.5441 13.0768C23.0489 12.9764 23.5721 13.0279 24.0476 13.2249C24.5231 13.4218 24.9296 13.7554 25.2155 14.1833C25.5015 14.6113 25.6541 15.1144 25.6541 15.6291C25.6532 16.319 25.3787 16.9804 24.8909 17.4682C24.403 17.956 23.7417 18.2305 23.0518 18.2314Z" fill="black"/>
</svg>
