<svg width="13" height="14" viewBox="0 0 13 14" fill="none" xmlns="http://www.w3.org/2000/svg">
<path d="M12.25 2.1875V11.8125C12.25 12.5371 11.6621 13.125 10.9375 13.125H8.60508V8.27969H10.2621L10.5 6.43125H8.60508V5.25C8.60508 4.71406 8.75274 4.35039 9.52109 4.35039H10.5V2.69883C10.3305 2.67695 9.75078 2.625 9.07266 2.625C7.66172 2.625 6.69375 3.48633 6.69375 5.06953V6.43398H5.03125V8.28242H6.69648V13.125H1.3125C0.587891 13.125 0 12.5371 0 11.8125V2.1875C0 1.46289 0.587891 0.875 1.3125 0.875H10.9375C11.6621 0.875 12.25 1.46289 12.25 2.1875Z" fill="white"/>
</svg>
